<mxfile host="app.diagrams.net" modified="2024-03-27T13:46:52.348Z" agent="Mozilla/5.0 (Windows NT 10.0; Win64; x64) AppleWebKit/537.36 (KHTML, like Gecko) Chrome/123.0.0.0 Safari/537.36" etag="mKJb279QBwQctokzut5l" version="24.2.0" type="github">
  <diagram name="Page-1" id="TMf8Ibqw47r6GeAVwnWy">
    <mxGraphModel dx="1434" dy="716" grid="1" gridSize="10" guides="1" tooltips="1" connect="1" arrows="1" fold="1" page="1" pageScale="1" pageWidth="850" pageHeight="1100" math="0" shadow="0">
      <root>
        <mxCell id="0" />
        <mxCell id="1" parent="0" />
        <mxCell id="v0SdNeiEmbGCDSW7TC1b-1" value="" style="html=1;verticalLabelPosition=bottom;align=center;labelBackgroundColor=#ffffff;verticalAlign=top;strokeWidth=2;strokeColor=#0080F0;shadow=0;dashed=0;shape=mxgraph.ios7.icons.smartphone;" vertex="1" parent="1">
          <mxGeometry x="210" y="111" width="50" height="90" as="geometry" />
        </mxCell>
        <mxCell id="v0SdNeiEmbGCDSW7TC1b-2" value="" style="html=1;verticalLabelPosition=bottom;align=center;labelBackgroundColor=#ffffff;verticalAlign=top;strokeWidth=2;strokeColor=#0080F0;shadow=0;dashed=0;shape=mxgraph.ios7.icons.smartphone;" vertex="1" parent="1">
          <mxGeometry x="402" y="116" width="50" height="90" as="geometry" />
        </mxCell>
        <mxCell id="v0SdNeiEmbGCDSW7TC1b-8" value="" style="edgeStyle=orthogonalEdgeStyle;rounded=0;orthogonalLoop=1;jettySize=auto;html=1;" edge="1" parent="1" source="v0SdNeiEmbGCDSW7TC1b-3" target="v0SdNeiEmbGCDSW7TC1b-4">
          <mxGeometry relative="1" as="geometry" />
        </mxCell>
        <mxCell id="v0SdNeiEmbGCDSW7TC1b-3" value="" style="outlineConnect=0;dashed=0;verticalLabelPosition=bottom;verticalAlign=top;align=center;html=1;shape=mxgraph.aws3.api_gateway;fillColor=#D9A741;gradientColor=none;" vertex="1" parent="1">
          <mxGeometry x="308.25" y="310" width="76.5" height="93" as="geometry" />
        </mxCell>
        <mxCell id="v0SdNeiEmbGCDSW7TC1b-4" value="" style="image;aspect=fixed;perimeter=ellipsePerimeter;html=1;align=center;shadow=0;dashed=0;fontColor=#4277BB;labelBackgroundColor=default;fontSize=12;spacingTop=3;image=img/lib/ibm/infrastructure/mobile_backend.svg;" vertex="1" parent="1">
          <mxGeometry x="316.5" y="470" width="60" height="60" as="geometry" />
        </mxCell>
        <mxCell id="v0SdNeiEmbGCDSW7TC1b-5" value="" style="shape=flexArrow;endArrow=classic;startArrow=classic;html=1;rounded=0;exitX=0.78;exitY=1.089;exitDx=0;exitDy=0;exitPerimeter=0;" edge="1" parent="1" source="v0SdNeiEmbGCDSW7TC1b-1">
          <mxGeometry width="100" height="100" relative="1" as="geometry">
            <mxPoint x="200" y="390" as="sourcePoint" />
            <mxPoint x="340" y="310" as="targetPoint" />
          </mxGeometry>
        </mxCell>
        <mxCell id="v0SdNeiEmbGCDSW7TC1b-6" value="" style="shape=flexArrow;endArrow=classic;startArrow=classic;html=1;rounded=0;exitX=0.26;exitY=1.022;exitDx=0;exitDy=0;exitPerimeter=0;entryX=0.5;entryY=0;entryDx=0;entryDy=0;entryPerimeter=0;" edge="1" parent="1" source="v0SdNeiEmbGCDSW7TC1b-2" target="v0SdNeiEmbGCDSW7TC1b-3">
          <mxGeometry width="100" height="100" relative="1" as="geometry">
            <mxPoint x="384.75" y="240" as="sourcePoint" />
            <mxPoint x="443.75" y="312" as="targetPoint" />
          </mxGeometry>
        </mxCell>
      </root>
    </mxGraphModel>
  </diagram>
</mxfile>
